<?xml version="1.0" encoding="utf-8"?>
<svg version="1.1" id="Layer_1" xmlns="http://www.w3.org/2000/svg" xmlns:xlink="http://www.w3.org/1999/xlink" x="0px" y="0px"
	 viewBox="0 0 236 284" enable-background="new 0 0 236 284" xml:space="preserve">
<rect y="0" fill="none" width="236" height="284"/>
<g>
	<ellipse fill="#0a91bc" cx="115.6" cy="271.4" rx="62.2" ry="3.9"/>
	<g>
		<path fill="#7B522F" d="M137.9,240.2l0.1,0.6c0,0.1-0.2,0.2-0.2,0.3c0,0.3,0,0.5,0.1,0.8c0.1,0.5,0.3,1,0.6,1.5
			c0.5,1,1.3,2,2.4,2.8c2.1,1.6,4.9,2.7,7.9,2.8c3,0.1,6.1-0.7,8.9-2.4c2.8-1.7,5.2-4.2,7-7.2c-1,3.3-2.8,6.5-5.4,9.1
			c-2.6,2.6-6.1,4.6-9.9,5.4c-3.9,0.8-8.1,0.6-12.1-1.2c-2-0.9-3.9-2.1-5.5-3.8c-0.8-0.8-1.6-1.8-2.2-2.8c-0.3-0.5-0.6-1-0.9-1.6
			c-0.1-0.3-0.3-0.6-0.4-0.9l-0.1-0.7L137.9,240.2z"/>
	</g>
	<g>
		<polygon fill="#D2AD63" points="104.4,240.9 107.4,266.3 111.6,266.3 114.2,243.7"/>
		<path fill="#D2AD63" d="M117.2,271.5c0.1-4.4-2-7.7-9.2-7.8c-7.3-0.1-7,7.6-7,7.6L117.2,271.5z"/>
	</g>
	<g>
		<polygon fill="#D2AD63" points="131.8,240.9 128.8,266.3 124.6,266.3 122,243.7"/>
		<path fill="#D2AD63" d="M118.9,271.5c-0.1-4.4,2-7.7,9.2-7.8c7.3-0.1,7,7.6,7,7.6L118.9,271.5z"/>
	</g>
	<g>
		<path fill="#D2AD63" d="M110.4,190.3c0,0-34.3,45.4-32.8,48.9c1.4,3.5,5,6.8,8.2,5.5c3.2-1.3,26.6-50.5,26.6-50.5L110.4,190.3z"/>
		<g>
			<path fill="#7B522F" d="M82.3,234.8c-2,3.6,8.1,8.3,7.8,2.1c-0.1-2.8-4.3-4.6-6.5-3.3C83,233.9,82.6,234.3,82.3,234.8z"/>
			<path fill="#7B522F" d="M82.1,241.2c0.2-0.2,0.4-0.4,0.5-0.6c1-2.7-3.8-1.1-3.5,0.7C79.3,242.5,81.2,242,82.1,241.2z"/>
			<path fill="#7B522F" d="M86.4,241.7c-0.6-1.3-3.8-0.3-3.2,1.3c0.5,1.3,3.2,0.4,3.3-0.7C86.5,242,86.5,241.8,86.4,241.7z"/>
			<path fill="#7B522F" d="M80.4,237.5c0.1-0.9-1-1.7-1.8-0.2c-0.7,1.2,0.4,1.9,1.4,1.1C80.2,238.1,80.4,237.8,80.4,237.5z"/>
		</g>
	</g>
	<g>
		<path fill="#D2AD63" d="M124.4,190.3c0,0,34.3,45.4,32.8,48.9c-1.4,3.5-5,6.8-8.2,5.5c-3.2-1.3-26.6-50.5-26.6-50.5L124.4,190.3z"
			/>
		<g>
			<path fill="#7B522F" d="M152.6,234.8c2,3.6-8.1,8.3-7.8,2.1c0.1-2.8,4.3-4.6,6.5-3.3C151.9,233.9,152.3,234.3,152.6,234.8z"/>
			<path fill="#7B522F" d="M152.7,241.2c-0.2-0.2-0.4-0.4-0.5-0.6c-1-2.7,3.8-1.1,3.5,0.7C155.5,242.5,153.7,242,152.7,241.2z"/>
			<path fill="#7B522F" d="M148.4,241.7c0.6-1.3,3.8-0.3,3.2,1.3c-0.5,1.3-3.2,0.4-3.3-0.7C148.4,242,148.4,241.8,148.4,241.7z"/>
			<path fill="#7B522F" d="M154.5,237.5c-0.1-0.9,1-1.7,1.8-0.2c0.7,1.2-0.4,1.9-1.4,1.1C154.6,238.1,154.5,237.8,154.5,237.5z"/>
		</g>
	</g>
	<path fill="#D2AD63" d="M121.8,183l-4,0.1l-4-0.1c0,0-53.9,70.2,3.9,70.2C175.4,253.2,121.8,183,121.8,183z"/>
	<g>
		<path fill="#7B522F" d="M191.6,112.6c6.8,1.5,12.4-8.9,9.7-14.8c-1.9-4.2-7.9-12.5-23.3-12.3c-15.4,0.2-19.6,22.8-19.6,22.8l0,0.2
			c0,0-0.2,0-0.4,0.1c3.3-0.2,10.4,10.5,10.4,10.5s-0.1-13.2,3.5-11.9C175.6,108.5,186.8,111.6,191.6,112.6z"/>
		<path fill="#7B522F" d="M65.7,107.2c3.6-1.3,3.5,11.9,3.5,11.9s7.2-10.8,10.4-10.5c-0.1,0-0.4-0.1-0.4-0.1l0-0.2
			c0,0-4.2-22.7-19.6-22.8c-15.4-0.2-21.3,8.1-23.3,12.3c-2.7,5.9,2.8,16.3,9.7,14.8C50.9,111.6,62.1,108.5,65.7,107.2z"/>
		<path fill="#D2AD63" d="M113.4,107.2c0,0-22.6-17.1-14.6-15.1c8,2,11.7,7,11.7,7s-0.4-13,2.7-13c3.1,0,4.2,9.4,4.2,9.4
			s4.4-4.9,10.6-4.8c6.2,0.1,2.4,6.9,2.4,6.9s5.7-6.1,9.9,0.2c4.2,6.3-8.8,9.8-8.8,9.8L113.4,107.2z"/>
		<path fill="#D2AD63" d="M60.6,149c-2.8-15.6,2.2-33.2,15.8-42.4c1.4-1.1,2.9-2.1,4.4-3c6.2-3.7,13.3-5.9,20.8-6.3
			c1.9-0.3,3.8-0.5,5.7-0.6c2-0.2,4.1-0.5,6.2-0.6c2.1-0.2,4.2-0.3,6.4-0.4c2.1-0.1,4.3-0.2,6.4-0.1c1.7,0,3.5,0.1,5.2,0.2
			c19.3,1,39.7,12.5,45.3,32.8c0.6,2,1,4.1,1.3,6.2c0.5,4.2,0.3,8.6-0.7,13c-0.3,2.6-0.8,5.1-1.5,7.4c-5.7,21-23.1,30.7-42.8,32.2
			c-2.4,0.2-4.9,0.3-7.4,0.2c-2.4,0.1-4.9,0.2-7.4,0.2c-2.5,0-5.1-0.1-7.7-0.3c-8-0.4-16-2.3-23.2-5.7c-1.8-0.9-3.5-1.8-5.2-2.8
			c-1.6-1-3.1-2.1-4.5-3.3c-1.2-1-2.4-2.1-3.5-3.2c-1.8-1.8-3.5-3.8-5.2-5.8c-0.8-1-1.6-2.1-2.3-3.2c-1.8-3.6-3.5-7.1-5-10.7
			C61.4,151.6,61,150.3,60.6,149z"/>
		<path fill="#F9DB8B" d="M142,163.1c0,7.5-18,15.5-22.6,15.5s-22.6-8-22.6-15.5c0-7.5,10.1-11.5,22.6-11.5
			C131.9,151.6,142,155.7,142,163.1z"/>
		<g>
			<g>
				<path fill="#3C3B42" d="M114.5,172.3c0.9,1.7,2.8,2.5,4.8,2.4l0,0c2-0.1,4-1,4.9-2.6l0,0l0,0c0.2-0.4,0.7-0.5,1.1-0.3l0,0
					c0.4,0.2,0.6,0.6,0.4,0.9l0,0c-1.3,2.2-3.9,3.3-6.4,3.4l0,0c-2.6,0.1-5.2-1-6.4-3.3l0,0c-0.2-0.4,0-0.8,0.5-0.9l0,0
					c0.1,0,0.2-0.1,0.3-0.1l0,0C114.1,171.9,114.4,172,114.5,172.3L114.5,172.3z"/>
			</g>
		</g>
		<ellipse fill="#3C3B42" cx="118.6" cy="157.4" rx="8.4" ry="4.1"/>
		<path fill="#7B522F" d="M106.1,121.8c6.3-3.7,16.2,2.1,15.7,12.2c-0.9,19.5-20.7,17.8-27.4,14.1c-9.1-5-11.3-15.4-7.9-20.7
			C89.4,122.9,96.4,127.4,106.1,121.8z"/>
		<g>
			<g>
				<path fill="#3C3B42" d="M113.9,139.7c0,1.9-0.7,3.8-1.9,5c-1.3,1.2-3.1,1.8-5,1.8c-1.9,0-3.5-0.9-4.8-2.2
					c-1.2-1.3-2.3-2.9-2.3-4.8c0-1.9,1.3-3.5,2.5-4.7c1.3-1.2,2.9-2,4.8-2c1.9,0,3.3,1,4.6,2.3C112.9,136.3,113.9,137.8,113.9,139.7
					z"/>
				<path fill="#FFFFFF" d="M106.8,137.3c0,1.1-0.9,1.9-2,1.9c-1.1,0-1.9-0.9-1.9-2c0-1.1,0.9-1.9,2-1.9
					C106,135.3,106.8,136.2,106.8,137.3z"/>
			</g>
			<g>
				<path fill="#3C3B42" d="M101.4,127.1c-0.2,0.7-1.6,1.2-3.4,2.1c-1.8,1-3.4,1.9-3.9,1.4c-0.4-0.4,0.6-2.2,2.8-3.5
					C99.2,125.9,101.6,126.4,101.4,127.1z"/>
			</g>
			<g>
				<path fill="#3C3B42" d="M137.9,140.1c0,1.9-0.7,3.8-1.9,5c-1.3,1.2-3.1,1.8-5.1,1.8c-1.9,0-3.5-0.9-4.8-2.2
					c-1.2-1.3-2.4-2.9-2.3-4.8c0-1.9,1.3-3.5,2.5-4.7c1.3-1.2,2.9-2,4.8-2c1.9,0,3.3,1,4.6,2.3C137,136.7,138,138.2,137.9,140.1z"/>
				<path fill="#FFFFFF" d="M130.9,137.7c0,1.1-0.9,1.9-2,1.9c-1.1,0-1.9-0.9-1.9-2c0-1.1,0.9-1.9,2-1.9
					C130.1,135.7,130.9,136.6,130.9,137.7z"/>
			</g>
			<g>
				<path fill="#3C3B42" d="M136.8,127.7c0.1,0.7,1.5,1.2,3.3,2.3c1.8,1.1,3.4,2,3.9,1.5c0.4-0.4-0.5-2.3-2.7-3.6
					C139.1,126.5,136.7,127,136.8,127.7z"/>
			</g>
		</g>
	</g>
</g>
</svg>
